<mxfile host="app.diagrams.net" modified="2023-02-28T09:13:25.229Z" agent="5.0 (Windows NT 10.0; Win64; x64) AppleWebKit/537.36 (KHTML, like Gecko) Chrome/110.0.0.0 Safari/537.36" etag="TcMq1hMspyvGZNgh0wx7" version="20.8.20" type="github">
  <diagram name="第 1 页" id="PWn0qpvjfhWFUnn55hS1">
    <mxGraphModel dx="4832" dy="-3425" grid="1" gridSize="10" guides="1" tooltips="1" connect="1" arrows="1" fold="1" page="1" pageScale="1" pageWidth="827" pageHeight="1169" math="0" shadow="0">
      <root>
        <mxCell id="0" />
        <mxCell id="1" parent="0" />
        <mxCell id="Eih9cNRxZLLOgjD7t8Rx-1" value="" style="swimlane;startSize=0;" parent="1" vertex="1">
          <mxGeometry x="-100" y="5350" width="1760" height="1250" as="geometry" />
        </mxCell>
        <mxCell id="Eih9cNRxZLLOgjD7t8Rx-2" value="&lt;font style=&quot;font-size: 36px;&quot;&gt;FSInsight-user-web&lt;/font&gt;" style="rounded=1;whiteSpace=wrap;html=1;fillColor=#b0e3e6;strokeColor=#0e8088;" parent="Eih9cNRxZLLOgjD7t8Rx-1" vertex="1">
          <mxGeometry x="1175" y="260" width="350" height="110" as="geometry" />
        </mxCell>
        <mxCell id="Eih9cNRxZLLOgjD7t8Rx-3" value="" style="shape=image;verticalLabelPosition=bottom;labelBackgroundColor=default;verticalAlign=top;aspect=fixed;imageAspect=0;image=https://www.gartner.com/imagesrv/peer-insights/vendors/logos/nginx.png;" parent="Eih9cNRxZLLOgjD7t8Rx-1" vertex="1">
          <mxGeometry x="707.12" y="110" width="148.55" height="50" as="geometry" />
        </mxCell>
        <mxCell id="Eih9cNRxZLLOgjD7t8Rx-4" value="&lt;font style=&quot;font-size: 36px;&quot;&gt;&lt;br&gt;FSInsight-api&lt;/font&gt;" style="rounded=1;whiteSpace=wrap;html=1;fillColor=#b0e3e6;strokeColor=#0e8088;" parent="Eih9cNRxZLLOgjD7t8Rx-1" vertex="1">
          <mxGeometry x="600" y="260" width="360" height="110" as="geometry" />
        </mxCell>
        <mxCell id="Eih9cNRxZLLOgjD7t8Rx-5" value="" style="shape=image;verticalLabelPosition=bottom;labelBackgroundColor=default;verticalAlign=top;aspect=fixed;imageAspect=0;image=https://upload.wikimedia.org/wikipedia/commons/thumb/0/00/Gunicorn_logo_2010.svg/2560px-Gunicorn_logo_2010.svg.png;" parent="Eih9cNRxZLLOgjD7t8Rx-1" vertex="1">
          <mxGeometry x="680.15" y="266.15" width="182.64" height="40.05" as="geometry" />
        </mxCell>
        <mxCell id="Eih9cNRxZLLOgjD7t8Rx-6" value="&lt;font style=&quot;font-size: 24px;&quot;&gt;FSInsight&lt;br&gt;Metabase&lt;/font&gt;" style="shape=cylinder3;whiteSpace=wrap;html=1;boundedLbl=1;backgroundOutline=1;size=15;fillColor=#b0e3e6;strokeColor=#0e8088;" parent="Eih9cNRxZLLOgjD7t8Rx-1" vertex="1">
          <mxGeometry x="637" y="521.64" width="290" height="190" as="geometry" />
        </mxCell>
        <mxCell id="Eih9cNRxZLLOgjD7t8Rx-7" value="" style="endArrow=classic;html=1;rounded=0;entryX=0.5;entryY=0;entryDx=0;entryDy=0;entryPerimeter=0;" parent="Eih9cNRxZLLOgjD7t8Rx-1" target="Eih9cNRxZLLOgjD7t8Rx-21" edge="1">
          <mxGeometry width="50" height="50" relative="1" as="geometry">
            <mxPoint x="776.61" y="750" as="sourcePoint" />
            <mxPoint x="776.61" y="730" as="targetPoint" />
          </mxGeometry>
        </mxCell>
        <mxCell id="Eih9cNRxZLLOgjD7t8Rx-8" value="" style="endArrow=classic;html=1;rounded=0;exitX=0.5;exitY=1;exitDx=0;exitDy=0;entryX=0.5;entryY=0;entryDx=0;entryDy=0;" parent="Eih9cNRxZLLOgjD7t8Rx-1" source="Eih9cNRxZLLOgjD7t8Rx-4" target="Eih9cNRxZLLOgjD7t8Rx-24" edge="1">
          <mxGeometry width="50" height="50" relative="1" as="geometry">
            <mxPoint x="465" y="490" as="sourcePoint" />
            <mxPoint x="475" y="510" as="targetPoint" />
            <Array as="points">
              <mxPoint x="780" y="450" />
              <mxPoint x="450" y="450" />
            </Array>
          </mxGeometry>
        </mxCell>
        <mxCell id="Eih9cNRxZLLOgjD7t8Rx-9" value="取出tasks" style="text;html=1;align=center;verticalAlign=middle;resizable=0;points=[];autosize=1;strokeColor=none;fillColor=none;" parent="Eih9cNRxZLLOgjD7t8Rx-1" vertex="1">
          <mxGeometry x="681.61" y="790" width="80" height="30" as="geometry" />
        </mxCell>
        <mxCell id="Eih9cNRxZLLOgjD7t8Rx-10" value="&lt;font style=&quot;font-size: 36px;&quot;&gt;&lt;br&gt;&lt;font style=&quot;font-size: 36px;&quot;&gt;FSInsight-ws&lt;/font&gt;&lt;/font&gt;" style="rounded=1;whiteSpace=wrap;html=1;fillColor=#b0e3e6;strokeColor=#0e8088;" parent="Eih9cNRxZLLOgjD7t8Rx-1" vertex="1">
          <mxGeometry x="120" y="260" width="340" height="110" as="geometry" />
        </mxCell>
        <mxCell id="Eih9cNRxZLLOgjD7t8Rx-11" value="&lt;font style=&quot;font-size: 29px;&quot;&gt;Daphne-Server&lt;/font&gt;" style="text;html=1;align=center;verticalAlign=middle;resizable=0;points=[];autosize=1;strokeColor=#82b366;fillColor=#d5e8d4;" parent="Eih9cNRxZLLOgjD7t8Rx-1" vertex="1">
          <mxGeometry x="180" y="266.15000000000003" width="220" height="50" as="geometry" />
        </mxCell>
        <mxCell id="Eih9cNRxZLLOgjD7t8Rx-12" value="" style="endArrow=classic;startArrow=classic;html=1;rounded=0;exitX=0.5;exitY=0;exitDx=0;exitDy=0;entryX=0.457;entryY=0.977;entryDx=0;entryDy=0;entryPerimeter=0;" parent="Eih9cNRxZLLOgjD7t8Rx-1" source="Eih9cNRxZLLOgjD7t8Rx-10" target="Eih9cNRxZLLOgjD7t8Rx-3" edge="1">
          <mxGeometry width="50" height="50" relative="1" as="geometry">
            <mxPoint x="350" y="310" as="sourcePoint" />
            <mxPoint x="400" y="260" as="targetPoint" />
            <Array as="points">
              <mxPoint x="290" y="160" />
            </Array>
          </mxGeometry>
        </mxCell>
        <mxCell id="Eih9cNRxZLLOgjD7t8Rx-13" value="" style="endArrow=classic;startArrow=classic;html=1;rounded=0;entryX=0.5;entryY=1;entryDx=0;entryDy=0;" parent="Eih9cNRxZLLOgjD7t8Rx-1" source="Eih9cNRxZLLOgjD7t8Rx-4" target="Eih9cNRxZLLOgjD7t8Rx-3" edge="1">
          <mxGeometry width="50" height="50" relative="1" as="geometry">
            <mxPoint x="350" y="250" as="sourcePoint" />
            <mxPoint x="475" y="120" as="targetPoint" />
          </mxGeometry>
        </mxCell>
        <mxCell id="Eih9cNRxZLLOgjD7t8Rx-14" value="" style="endArrow=classic;startArrow=classic;html=1;rounded=0;entryX=0.5;entryY=1;entryDx=0;entryDy=0;exitX=0.5;exitY=0;exitDx=0;exitDy=0;" parent="Eih9cNRxZLLOgjD7t8Rx-1" source="Eih9cNRxZLLOgjD7t8Rx-2" target="Eih9cNRxZLLOgjD7t8Rx-3" edge="1">
          <mxGeometry width="50" height="50" relative="1" as="geometry">
            <mxPoint x="350" y="250" as="sourcePoint" />
            <mxPoint x="400" y="200" as="targetPoint" />
            <Array as="points">
              <mxPoint x="1350" y="160" />
              <mxPoint x="1055" y="160" />
            </Array>
          </mxGeometry>
        </mxCell>
        <mxCell id="Eih9cNRxZLLOgjD7t8Rx-15" value="CMDB" style="text;html=1;align=center;verticalAlign=middle;resizable=0;points=[];autosize=1;strokeColor=none;fillColor=none;fontSize=21;" parent="Eih9cNRxZLLOgjD7t8Rx-1" vertex="1">
          <mxGeometry x="737" y="521.64" width="90" height="40" as="geometry" />
        </mxCell>
        <mxCell id="Eih9cNRxZLLOgjD7t8Rx-16" value="全局私钥" style="rounded=1;whiteSpace=wrap;html=1;fontSize=14;fillColor=#e3c800;fontColor=#000000;strokeColor=#B09500;" parent="Eih9cNRxZLLOgjD7t8Rx-1" vertex="1">
          <mxGeometry x="847" y="561.64" width="70" height="40" as="geometry" />
        </mxCell>
        <mxCell id="Eih9cNRxZLLOgjD7t8Rx-17" value="全局公钥" style="rounded=1;whiteSpace=wrap;html=1;fontSize=14;fillColor=#60a917;fontColor=#ffffff;strokeColor=#2D7600;" parent="Eih9cNRxZLLOgjD7t8Rx-1" vertex="1">
          <mxGeometry x="649.8600000000001" y="561.64" width="70" height="40" as="geometry" />
        </mxCell>
        <mxCell id="Eih9cNRxZLLOgjD7t8Rx-18" value="主机连&lt;br&gt;接属性" style="rounded=1;whiteSpace=wrap;html=1;fontSize=14;fillColor=#1ba1e2;fontColor=#ffffff;strokeColor=#006EAF;" parent="Eih9cNRxZLLOgjD7t8Rx-1" vertex="1">
          <mxGeometry x="747" y="661.64" width="70" height="40" as="geometry" />
        </mxCell>
        <mxCell id="Eih9cNRxZLLOgjD7t8Rx-19" value="" style="shape=image;verticalLabelPosition=bottom;labelBackgroundColor=#33FFFF;verticalAlign=top;aspect=fixed;imageAspect=0;image=https://download.logo.wine/logo/Redis/Redis-Logo.wine.png;" parent="Eih9cNRxZLLOgjD7t8Rx-1" vertex="1">
          <mxGeometry x="-20" y="503.28" width="339.72" height="226.72" as="geometry" />
        </mxCell>
        <mxCell id="Eih9cNRxZLLOgjD7t8Rx-20" value="&lt;font style=&quot;font-size: 36px;&quot;&gt;FSInsight-master&lt;/font&gt;" style="rounded=1;whiteSpace=wrap;html=1;fillColor=#1ba1e2;strokeColor=#006EAF;fontColor=#ffffff;" parent="Eih9cNRxZLLOgjD7t8Rx-1" vertex="1">
          <mxGeometry width="1760" height="80" as="geometry" />
        </mxCell>
        <mxCell id="Eih9cNRxZLLOgjD7t8Rx-21" value="" style="verticalLabelPosition=bottom;html=1;verticalAlign=top;align=center;strokeColor=#0e8088;fillColor=#b0e3e6;shape=mxgraph.azure.worker_role;labelBackgroundColor=#33FFFF;fontSize=24;" parent="Eih9cNRxZLLOgjD7t8Rx-1" vertex="1">
          <mxGeometry x="631.61" y="840" width="290" height="190" as="geometry" />
        </mxCell>
        <mxCell id="Eih9cNRxZLLOgjD7t8Rx-22" value="&lt;font style=&quot;font-size: 36px;&quot;&gt;FSInsight-wroker&lt;/font&gt;" style="text;html=1;align=center;verticalAlign=middle;resizable=0;points=[];autosize=1;strokeColor=none;fillColor=none;fontSize=24;" parent="Eih9cNRxZLLOgjD7t8Rx-1" vertex="1">
          <mxGeometry x="621.33" y="970" width="300" height="60" as="geometry" />
        </mxCell>
        <mxCell id="Eih9cNRxZLLOgjD7t8Rx-23" value="" style="shape=image;verticalLabelPosition=bottom;labelBackgroundColor=default;verticalAlign=top;aspect=fixed;imageAspect=0;image=https://grafana.com/docs/loki/latest/logo_and_name.png;" parent="Eih9cNRxZLLOgjD7t8Rx-1" vertex="1">
          <mxGeometry x="970" y="565" width="237.13" height="140" as="geometry" />
        </mxCell>
        <mxCell id="Eih9cNRxZLLOgjD7t8Rx-24" value="" style="shape=image;verticalLabelPosition=bottom;labelBackgroundColor=default;verticalAlign=top;aspect=fixed;imageAspect=0;image=https://seeklogo.com/images/P/prometheus-monitoring-system-logo-3C07B67C00-seeklogo.com.png;" parent="Eih9cNRxZLLOgjD7t8Rx-1" vertex="1">
          <mxGeometry x="370" y="546.64" width="162.79" height="140" as="geometry" />
        </mxCell>
        <mxCell id="Eih9cNRxZLLOgjD7t8Rx-25" value="" style="endArrow=classic;html=1;rounded=0;exitX=0.5;exitY=1;exitDx=0;exitDy=0;" parent="Eih9cNRxZLLOgjD7t8Rx-1" source="Eih9cNRxZLLOgjD7t8Rx-4" edge="1">
          <mxGeometry width="50" height="50" relative="1" as="geometry">
            <mxPoint x="765" y="350" as="sourcePoint" />
            <mxPoint x="780" y="520" as="targetPoint" />
          </mxGeometry>
        </mxCell>
        <mxCell id="Eih9cNRxZLLOgjD7t8Rx-26" value="" style="endArrow=classic;html=1;rounded=0;entryX=0.5;entryY=0;entryDx=0;entryDy=0;exitX=0.5;exitY=1;exitDx=0;exitDy=0;" parent="Eih9cNRxZLLOgjD7t8Rx-1" source="Eih9cNRxZLLOgjD7t8Rx-4" target="Eih9cNRxZLLOgjD7t8Rx-23" edge="1">
          <mxGeometry width="50" height="50" relative="1" as="geometry">
            <mxPoint x="760" y="340" as="sourcePoint" />
            <mxPoint x="635" y="455" as="targetPoint" />
            <Array as="points">
              <mxPoint x="781" y="450" />
              <mxPoint x="1090" y="450" />
            </Array>
          </mxGeometry>
        </mxCell>
        <mxCell id="Eih9cNRxZLLOgjD7t8Rx-27" value="" style="endArrow=classic;html=1;rounded=0;strokeWidth=1;fontSize=37;entryX=0.5;entryY=0;entryDx=0;entryDy=0;exitX=0.5;exitY=1;exitDx=0;exitDy=0;" parent="Eih9cNRxZLLOgjD7t8Rx-1" source="Eih9cNRxZLLOgjD7t8Rx-10" edge="1">
          <mxGeometry width="50" height="50" relative="1" as="geometry">
            <mxPoint x="490" y="600" as="sourcePoint" />
            <mxPoint x="154.86000000000058" y="575" as="targetPoint" />
            <Array as="points">
              <mxPoint x="289" y="410" />
              <mxPoint x="155" y="410" />
            </Array>
          </mxGeometry>
        </mxCell>
        <mxCell id="Eih9cNRxZLLOgjD7t8Rx-28" value="" style="shape=image;verticalLabelPosition=bottom;labelBackgroundColor=default;verticalAlign=top;aspect=fixed;imageAspect=0;image=https://cdn-icons-png.flaticon.com/512/5799/5799222.png;" parent="Eih9cNRxZLLOgjD7t8Rx-1" vertex="1">
          <mxGeometry x="1300" y="540" width="110" height="110" as="geometry" />
        </mxCell>
        <mxCell id="Eih9cNRxZLLOgjD7t8Rx-29" value="Alertmanager" style="text;html=1;align=center;verticalAlign=middle;resizable=0;points=[];autosize=1;strokeColor=none;fillColor=none;fontSize=36;" parent="Eih9cNRxZLLOgjD7t8Rx-1" vertex="1">
          <mxGeometry x="1230" y="660" width="240" height="60" as="geometry" />
        </mxCell>
        <mxCell id="Eih9cNRxZLLOgjD7t8Rx-30" value="" style="shape=image;verticalLabelPosition=bottom;labelBackgroundColor=default;verticalAlign=top;aspect=fixed;imageAspect=0;image=https://uxwing.com/wp-content/themes/uxwing/download/brands-and-social-media/grafana-icon.png;" parent="Eih9cNRxZLLOgjD7t8Rx-1" vertex="1">
          <mxGeometry x="1550" y="549.18" width="102.17" height="110.82" as="geometry" />
        </mxCell>
        <mxCell id="Eih9cNRxZLLOgjD7t8Rx-31" value="" style="endArrow=classic;html=1;rounded=0;strokeWidth=1;fontSize=32;exitX=0.5;exitY=1;exitDx=0;exitDy=0;entryX=0.5;entryY=0;entryDx=0;entryDy=0;" parent="Eih9cNRxZLLOgjD7t8Rx-1" source="Eih9cNRxZLLOgjD7t8Rx-4" target="Eih9cNRxZLLOgjD7t8Rx-28" edge="1">
          <mxGeometry width="50" height="50" relative="1" as="geometry">
            <mxPoint x="1020" y="730" as="sourcePoint" />
            <mxPoint x="1070" y="680" as="targetPoint" />
            <Array as="points">
              <mxPoint x="780" y="450" />
              <mxPoint x="1355" y="450" />
            </Array>
          </mxGeometry>
        </mxCell>
        <mxCell id="5G6BUOi-uD9NeLcH04Ix-1" value="Grafana" style="text;html=1;align=center;verticalAlign=middle;resizable=0;points=[];autosize=1;strokeColor=none;fillColor=none;fontSize=36;" parent="Eih9cNRxZLLOgjD7t8Rx-1" vertex="1">
          <mxGeometry x="1535" y="660" width="150" height="60" as="geometry" />
        </mxCell>
        <mxCell id="B23y7wXSr48O5kqvbDNo-1" value="" style="endArrow=classic;html=1;rounded=0;exitX=0.5;exitY=1;exitDx=0;exitDy=0;" parent="Eih9cNRxZLLOgjD7t8Rx-1" source="Eih9cNRxZLLOgjD7t8Rx-10" edge="1">
          <mxGeometry width="50" height="50" relative="1" as="geometry">
            <mxPoint x="960" y="860" as="sourcePoint" />
            <mxPoint x="700" y="520" as="targetPoint" />
            <Array as="points">
              <mxPoint x="290" y="410" />
              <mxPoint x="700" y="410" />
            </Array>
          </mxGeometry>
        </mxCell>
        <mxCell id="B23y7wXSr48O5kqvbDNo-2" value="" style="endArrow=classic;html=1;rounded=0;entryX=0.5;entryY=0;entryDx=0;entryDy=0;" parent="Eih9cNRxZLLOgjD7t8Rx-1" target="Eih9cNRxZLLOgjD7t8Rx-3" edge="1">
          <mxGeometry width="50" height="50" relative="1" as="geometry">
            <mxPoint x="781" y="80" as="sourcePoint" />
            <mxPoint x="791" y="10" as="targetPoint" />
          </mxGeometry>
        </mxCell>
        <mxCell id="B23y7wXSr48O5kqvbDNo-4" value="" style="rounded=1;whiteSpace=wrap;html=1;fontSize=36;fillColor=#b0e3e6;strokeColor=#0e8088;" parent="Eih9cNRxZLLOgjD7t8Rx-1" vertex="1">
          <mxGeometry x="50" y="847.5" width="310" height="182.5" as="geometry" />
        </mxCell>
        <mxCell id="B23y7wXSr48O5kqvbDNo-3" value="" style="shape=image;verticalLabelPosition=bottom;labelBackgroundColor=default;verticalAlign=top;aspect=fixed;imageAspect=0;image=https://upload.wikimedia.org/wikipedia/commons/d/de/AirflowLogo.png;" parent="Eih9cNRxZLLOgjD7t8Rx-1" vertex="1">
          <mxGeometry x="61.00999999999999" y="885" width="258.71" height="100" as="geometry" />
        </mxCell>
        <mxCell id="B23y7wXSr48O5kqvbDNo-5" value="&lt;font style=&quot;font-size: 18px;&quot;&gt;Airflow&lt;br&gt;Metabase&lt;/font&gt;" style="shape=cylinder3;whiteSpace=wrap;html=1;boundedLbl=1;backgroundOutline=1;size=15;fontSize=36;fillColor=#b0e3e6;strokeColor=#0e8088;" parent="Eih9cNRxZLLOgjD7t8Rx-1" vertex="1">
          <mxGeometry x="225" y="1110" width="130" height="110" as="geometry" />
        </mxCell>
        <mxCell id="B23y7wXSr48O5kqvbDNo-6" value="Airflow&lt;br&gt;UI" style="rounded=1;whiteSpace=wrap;html=1;fontSize=18;fillColor=#b0e3e6;strokeColor=#0e8088;" parent="Eih9cNRxZLLOgjD7t8Rx-1" vertex="1">
          <mxGeometry x="50" y="1110" width="120" height="60" as="geometry" />
        </mxCell>
        <mxCell id="B23y7wXSr48O5kqvbDNo-7" value="" style="endArrow=classic;html=1;rounded=0;fontSize=18;exitX=0.5;exitY=1;exitDx=0;exitDy=0;entryX=0.5;entryY=0;entryDx=0;entryDy=0;entryPerimeter=0;" parent="Eih9cNRxZLLOgjD7t8Rx-1" source="B23y7wXSr48O5kqvbDNo-4" target="B23y7wXSr48O5kqvbDNo-5" edge="1">
          <mxGeometry width="50" height="50" relative="1" as="geometry">
            <mxPoint x="980" y="1030" as="sourcePoint" />
            <mxPoint x="1030" y="980" as="targetPoint" />
            <Array as="points">
              <mxPoint x="205" y="1070" />
              <mxPoint x="290" y="1070" />
            </Array>
          </mxGeometry>
        </mxCell>
        <mxCell id="B23y7wXSr48O5kqvbDNo-8" value="" style="endArrow=classic;html=1;rounded=0;fontSize=18;exitX=0.5;exitY=1;exitDx=0;exitDy=0;entryX=0.5;entryY=0;entryDx=0;entryDy=0;" parent="Eih9cNRxZLLOgjD7t8Rx-1" source="B23y7wXSr48O5kqvbDNo-4" target="B23y7wXSr48O5kqvbDNo-6" edge="1">
          <mxGeometry width="50" height="50" relative="1" as="geometry">
            <mxPoint x="980" y="1030" as="sourcePoint" />
            <mxPoint x="1030" y="980" as="targetPoint" />
            <Array as="points">
              <mxPoint x="205" y="1070" />
              <mxPoint x="110" y="1070" />
            </Array>
          </mxGeometry>
        </mxCell>
        <mxCell id="B23y7wXSr48O5kqvbDNo-9" value="" style="endArrow=classic;html=1;rounded=0;fontSize=18;entryX=0.662;entryY=0.647;entryDx=0;entryDy=0;exitX=0.5;exitY=0;exitDx=0;exitDy=0;entryPerimeter=0;strokeColor=#00CC00;strokeWidth=2;" parent="Eih9cNRxZLLOgjD7t8Rx-1" source="B23y7wXSr48O5kqvbDNo-4" target="Eih9cNRxZLLOgjD7t8Rx-19" edge="1">
          <mxGeometry width="50" height="50" relative="1" as="geometry">
            <mxPoint x="700" y="830" as="sourcePoint" />
            <mxPoint x="750" y="780" as="targetPoint" />
          </mxGeometry>
        </mxCell>
        <mxCell id="B23y7wXSr48O5kqvbDNo-15" value="" style="endArrow=classic;html=1;rounded=0;strokeColor=#006633;strokeWidth=2;fontSize=36;entryX=0.75;entryY=0;entryDx=0;entryDy=0;exitX=0;exitY=1;exitDx=0;exitDy=0;" parent="Eih9cNRxZLLOgjD7t8Rx-1" source="Eih9cNRxZLLOgjD7t8Rx-24" target="B23y7wXSr48O5kqvbDNo-4" edge="1">
          <mxGeometry width="50" height="50" relative="1" as="geometry">
            <mxPoint x="450" y="890" as="sourcePoint" />
            <mxPoint x="500" y="840" as="targetPoint" />
            <Array as="points">
              <mxPoint x="283" y="687" />
            </Array>
          </mxGeometry>
        </mxCell>
        <mxCell id="Eih9cNRxZLLOgjD7t8Rx-32" value="&amp;nbsp; &amp;nbsp; &amp;nbsp; &amp;nbsp; &amp;nbsp;&lt;br&gt;&lt;br&gt;&lt;br&gt;&lt;br&gt;&lt;br&gt;&lt;br&gt;&lt;br&gt;&lt;br&gt;&lt;br&gt;&amp;nbsp; &amp;nbsp; &amp;nbsp; &amp;nbsp; &amp;nbsp; &amp;nbsp; &amp;nbsp; &amp;nbsp; &amp;nbsp; &amp;nbsp; &amp;nbsp; &amp;nbsp; &amp;nbsp; &amp;nbsp; &amp;nbsp; &amp;nbsp; &amp;nbsp; &amp;nbsp; &amp;nbsp; &amp;nbsp; &amp;nbsp; &amp;nbsp; &amp;nbsp; &amp;nbsp; &amp;nbsp;&lt;br&gt;&lt;br&gt;&lt;br&gt;&lt;br&gt;&lt;br&gt;&lt;br&gt;&lt;br&gt;&lt;br&gt;&lt;br&gt;&amp;nbsp; &amp;nbsp; &amp;nbsp; &amp;nbsp; &amp;nbsp; &amp;nbsp; &amp;nbsp; &amp;nbsp; &amp;nbsp; &amp;nbsp; &amp;nbsp; &amp;nbsp; &amp;nbsp; &amp;nbsp; &amp;nbsp; &amp;nbsp; &amp;nbsp; &amp;nbsp; &amp;nbsp; &amp;nbsp; &amp;nbsp; &amp;nbsp; &amp;nbsp; &amp;nbsp; &amp;nbsp; &amp;nbsp; &amp;nbsp; &amp;nbsp; &amp;nbsp; &amp;nbsp; &amp;nbsp; &amp;nbsp; &amp;nbsp; &amp;nbsp; &amp;nbsp; &amp;nbsp; &amp;nbsp; &amp;nbsp; &amp;nbsp; &amp;nbsp; &amp;nbsp; &amp;nbsp;&lt;font style=&quot;font-size: 30px;&quot;&gt;HostN&lt;/font&gt;" style="rounded=1;whiteSpace=wrap;html=1;fillColor=#f5f5f5;gradientColor=#b3b3b3;strokeColor=#666666;" parent="1" vertex="1">
          <mxGeometry x="810" y="6920" width="720" height="580" as="geometry" />
        </mxCell>
        <mxCell id="Eih9cNRxZLLOgjD7t8Rx-33" value="" style="verticalLabelPosition=bottom;html=1;verticalAlign=top;align=center;strokeColor=none;fillColor=#00BEF2;shape=mxgraph.azure.user;" parent="1" vertex="1">
          <mxGeometry x="626.39" y="5210" width="110" height="100" as="geometry" />
        </mxCell>
        <mxCell id="Eih9cNRxZLLOgjD7t8Rx-34" value="&lt;font style=&quot;font-size: 36px;&quot;&gt;平台用户&lt;/font&gt;" style="text;html=1;align=center;verticalAlign=middle;resizable=0;points=[];autosize=1;strokeColor=none;fillColor=none;fontSize=24;" parent="1" vertex="1">
          <mxGeometry x="460" y="5255" width="170" height="60" as="geometry" />
        </mxCell>
        <mxCell id="Eih9cNRxZLLOgjD7t8Rx-35" value="" style="endArrow=classic;html=1;rounded=0;exitX=0.5;exitY=1;exitDx=0;exitDy=0;exitPerimeter=0;" parent="1" source="Eih9cNRxZLLOgjD7t8Rx-33" edge="1">
          <mxGeometry width="50" height="50" relative="1" as="geometry">
            <mxPoint x="260" y="6030" as="sourcePoint" />
            <mxPoint x="681" y="5350" as="targetPoint" />
          </mxGeometry>
        </mxCell>
        <mxCell id="Eih9cNRxZLLOgjD7t8Rx-36" value="SSH" style="text;html=1;align=center;verticalAlign=middle;resizable=0;points=[];autosize=1;strokeColor=none;fillColor=none;fontSize=24;" parent="1" vertex="1">
          <mxGeometry x="620" y="6750" width="70" height="40" as="geometry" />
        </mxCell>
        <mxCell id="Eih9cNRxZLLOgjD7t8Rx-37" value="全局公钥" style="rounded=1;whiteSpace=wrap;html=1;fontSize=14;fillColor=#60a917;fontColor=#ffffff;strokeColor=#2D7600;" parent="1" vertex="1">
          <mxGeometry x="880" y="7330" width="70" height="40" as="geometry" />
        </mxCell>
        <mxCell id="Eih9cNRxZLLOgjD7t8Rx-38" value="&lt;font style=&quot;font-size: 36px;&quot;&gt;&lt;br&gt;FSInsight&lt;br&gt;Agent&lt;/font&gt;" style="rounded=1;whiteSpace=wrap;html=1;fillColor=#b0e3e6;strokeColor=#0e8088;" parent="1" vertex="1">
          <mxGeometry x="835" y="6930" width="670" height="310" as="geometry" />
        </mxCell>
        <mxCell id="Eih9cNRxZLLOgjD7t8Rx-39" value="&lt;font style=&quot;font-size: 37px;&quot;&gt;运&lt;br&gt;维&lt;br&gt;平&lt;br&gt;台&lt;br&gt;被&lt;br&gt;管&lt;br&gt;控&lt;br&gt;主&lt;br&gt;机&lt;br&gt;端&lt;br&gt;FSInsight&lt;br&gt;-&lt;br&gt;agent&lt;/font&gt;" style="rounded=0;whiteSpace=wrap;html=1;labelBackgroundColor=none;fontSize=24;fillColor=#f5f5f5;gradientColor=#b3b3b3;strokeColor=#666666;direction=south;" parent="1" vertex="1">
          <mxGeometry x="1740" y="6660" width="155" height="850" as="geometry" />
        </mxCell>
        <mxCell id="Eih9cNRxZLLOgjD7t8Rx-40" value="&lt;font style=&quot;font-size: 37px;&quot;&gt;&lt;br&gt;运&lt;br&gt;维&lt;br&gt;平&lt;br&gt;台&lt;br&gt;管&lt;br&gt;理&lt;br&gt;端&lt;br&gt;FSInsight&lt;br&gt;-&lt;br&gt;master&lt;/font&gt;" style="rounded=0;whiteSpace=wrap;html=1;labelBackgroundColor=none;fontSize=37;fillColor=#b0e3e6;strokeColor=#0e8088;direction=south;" parent="1" vertex="1">
          <mxGeometry x="1740" y="5350" width="160" height="1240" as="geometry" />
        </mxCell>
        <mxCell id="Eih9cNRxZLLOgjD7t8Rx-42" value="&lt;font style=&quot;font-size: 35px;&quot;&gt;Node-exporter&lt;/font&gt;" style="rounded=0;whiteSpace=wrap;html=1;labelBackgroundColor=none;fontSize=37;fillColor=#d5e8d4;gradientColor=#97d077;strokeColor=#82b366;" parent="1" vertex="1">
          <mxGeometry x="1040" y="6950" width="230" height="60" as="geometry" />
        </mxCell>
        <mxCell id="Eih9cNRxZLLOgjD7t8Rx-43" value="&lt;font style=&quot;font-size: 35px;&quot;&gt;Promtail&lt;/font&gt;" style="rounded=0;whiteSpace=wrap;html=1;labelBackgroundColor=none;fontSize=37;fillColor=#d5e8d4;gradientColor=#97d077;strokeColor=#82b366;" parent="1" vertex="1">
          <mxGeometry x="1320" y="6950" width="140" height="60" as="geometry" />
        </mxCell>
        <mxCell id="Eih9cNRxZLLOgjD7t8Rx-44" value="&amp;nbsp; &amp;nbsp; &amp;nbsp; &amp;nbsp; &amp;nbsp;&lt;br&gt;&lt;br&gt;&lt;br&gt;&lt;br&gt;&lt;br&gt;&lt;br&gt;&lt;br&gt;&lt;br&gt;&lt;br&gt;&amp;nbsp; &amp;nbsp; &amp;nbsp; &amp;nbsp; &amp;nbsp; &amp;nbsp; &amp;nbsp; &amp;nbsp; &amp;nbsp; &amp;nbsp; &amp;nbsp; &amp;nbsp; &amp;nbsp; &amp;nbsp; &amp;nbsp; &amp;nbsp; &amp;nbsp; &amp;nbsp; &amp;nbsp; &amp;nbsp; &amp;nbsp; &amp;nbsp; &amp;nbsp; &amp;nbsp; &amp;nbsp;&lt;br&gt;&lt;br&gt;&lt;br&gt;&lt;br&gt;&lt;br&gt;&lt;br&gt;&lt;br&gt;&lt;br&gt;&lt;br&gt;&amp;nbsp; &amp;nbsp; &amp;nbsp; &amp;nbsp; &amp;nbsp; &amp;nbsp; &amp;nbsp; &amp;nbsp; &amp;nbsp; &amp;nbsp; &amp;nbsp; &amp;nbsp; &amp;nbsp; &amp;nbsp; &amp;nbsp; &amp;nbsp; &amp;nbsp; &amp;nbsp; &amp;nbsp; &amp;nbsp; &amp;nbsp; &amp;nbsp; &amp;nbsp; &amp;nbsp; &amp;nbsp; &amp;nbsp; &amp;nbsp; &amp;nbsp; &amp;nbsp; &amp;nbsp; &amp;nbsp; &amp;nbsp; &amp;nbsp; &amp;nbsp; &amp;nbsp; &amp;nbsp; &amp;nbsp; &amp;nbsp; &amp;nbsp; &amp;nbsp; &amp;nbsp; &amp;nbsp;&lt;font style=&quot;font-size: 30px;&quot;&gt;Host1&lt;/font&gt;" style="rounded=1;whiteSpace=wrap;html=1;fillColor=#f5f5f5;gradientColor=#b3b3b3;strokeColor=#666666;" parent="1" vertex="1">
          <mxGeometry x="-44.75999999999999" y="6910" width="720" height="580" as="geometry" />
        </mxCell>
        <mxCell id="Eih9cNRxZLLOgjD7t8Rx-45" value="全局公钥" style="rounded=1;whiteSpace=wrap;html=1;fontSize=14;fillColor=#60a917;fontColor=#ffffff;strokeColor=#2D7600;" parent="1" vertex="1">
          <mxGeometry x="25.24000000000001" y="7320" width="70" height="40" as="geometry" />
        </mxCell>
        <mxCell id="Eih9cNRxZLLOgjD7t8Rx-46" value="&lt;font style=&quot;font-size: 36px;&quot;&gt;&lt;br&gt;FSInsight&lt;br&gt;Agent&lt;/font&gt;" style="rounded=1;whiteSpace=wrap;html=1;fillColor=#b0e3e6;strokeColor=#0e8088;" parent="1" vertex="1">
          <mxGeometry x="-19.75999999999999" y="6920" width="670" height="310" as="geometry" />
        </mxCell>
        <mxCell id="Eih9cNRxZLLOgjD7t8Rx-47" value="&lt;font style=&quot;font-size: 35px;&quot;&gt;Python&lt;br&gt;&amp;amp;&lt;br&gt;Shell&lt;br&gt;&lt;/font&gt;" style="rounded=0;whiteSpace=wrap;html=1;labelBackgroundColor=none;fontSize=37;fillColor=#d5e8d4;gradientColor=#97d077;strokeColor=#82b366;" parent="1" vertex="1">
          <mxGeometry x="15.240000000000002" y="6940" width="114.76" height="150" as="geometry" />
        </mxCell>
        <mxCell id="Eih9cNRxZLLOgjD7t8Rx-48" value="&lt;font style=&quot;font-size: 35px;&quot;&gt;Node-exporter&lt;/font&gt;" style="rounded=0;whiteSpace=wrap;html=1;labelBackgroundColor=none;fontSize=37;fillColor=#d5e8d4;gradientColor=#97d077;strokeColor=#82b366;" parent="1" vertex="1">
          <mxGeometry x="185.24" y="6940" width="230" height="60" as="geometry" />
        </mxCell>
        <mxCell id="Eih9cNRxZLLOgjD7t8Rx-49" value="&lt;font style=&quot;font-size: 35px;&quot;&gt;Promtail&lt;/font&gt;" style="rounded=0;whiteSpace=wrap;html=1;labelBackgroundColor=none;fontSize=37;fillColor=#d5e8d4;gradientColor=#97d077;strokeColor=#82b366;" parent="1" vertex="1">
          <mxGeometry x="465.24" y="6940" width="140" height="60" as="geometry" />
        </mxCell>
        <mxCell id="Eih9cNRxZLLOgjD7t8Rx-50" value="......" style="text;html=1;align=center;verticalAlign=middle;resizable=0;points=[];autosize=1;strokeColor=none;fillColor=none;fontSize=36;" parent="1" vertex="1">
          <mxGeometry x="700" y="7300" width="80" height="60" as="geometry" />
        </mxCell>
        <mxCell id="Eih9cNRxZLLOgjD7t8Rx-51" value="" style="endArrow=classic;html=1;rounded=0;strokeWidth=1;fontSize=36;exitX=0.5;exitY=1;exitDx=0;exitDy=0;" parent="1" source="Eih9cNRxZLLOgjD7t8Rx-24" target="Eih9cNRxZLLOgjD7t8Rx-42" edge="1">
          <mxGeometry width="50" height="50" relative="1" as="geometry">
            <mxPoint x="830" y="6680" as="sourcePoint" />
            <mxPoint x="970" y="6270" as="targetPoint" />
            <Array as="points">
              <mxPoint x="351" y="6540" />
              <mxPoint x="880" y="6540" />
              <mxPoint x="880" y="6790" />
              <mxPoint x="1155" y="6790" />
            </Array>
          </mxGeometry>
        </mxCell>
        <mxCell id="Eih9cNRxZLLOgjD7t8Rx-52" value="" style="endArrow=classic;html=1;rounded=0;strokeWidth=1;fontSize=36;exitX=0.5;exitY=1;exitDx=0;exitDy=0;entryX=0.5;entryY=0;entryDx=0;entryDy=0;" parent="1" source="Eih9cNRxZLLOgjD7t8Rx-23" target="Eih9cNRxZLLOgjD7t8Rx-43" edge="1">
          <mxGeometry width="50" height="50" relative="1" as="geometry">
            <mxPoint x="760" y="6350" as="sourcePoint" />
            <mxPoint x="810" y="6300" as="targetPoint" />
            <Array as="points">
              <mxPoint x="990" y="6700" />
              <mxPoint x="1390" y="6700" />
            </Array>
          </mxGeometry>
        </mxCell>
        <mxCell id="Eih9cNRxZLLOgjD7t8Rx-53" value="" style="endArrow=classic;html=1;rounded=0;strokeWidth=1;fontSize=36;entryX=0.5;entryY=0;entryDx=0;entryDy=0;exitX=0.543;exitY=1.059;exitDx=0;exitDy=0;exitPerimeter=0;" parent="1" source="Eih9cNRxZLLOgjD7t8Rx-22" target="Eih9cNRxZLLOgjD7t8Rx-47" edge="1">
          <mxGeometry width="50" height="50" relative="1" as="geometry">
            <mxPoint x="370" y="6390" as="sourcePoint" />
            <mxPoint x="570" y="6280" as="targetPoint" />
            <Array as="points">
              <mxPoint x="684" y="6790" />
              <mxPoint x="75" y="6790" />
            </Array>
          </mxGeometry>
        </mxCell>
        <mxCell id="Eih9cNRxZLLOgjD7t8Rx-54" value="" style="endArrow=classic;html=1;rounded=0;strokeWidth=1;fontSize=36;entryX=0.003;entryY=0.476;entryDx=0;entryDy=0;exitX=0;exitY=0.5;exitDx=0;exitDy=0;entryPerimeter=0;" parent="1" source="Eih9cNRxZLLOgjD7t8Rx-47" target="Eih9cNRxZLLOgjD7t8Rx-19" edge="1">
          <mxGeometry width="50" height="50" relative="1" as="geometry">
            <mxPoint x="760" y="6260" as="sourcePoint" />
            <mxPoint x="810" y="6210" as="targetPoint" />
            <Array as="points">
              <mxPoint x="-280" y="7015" />
              <mxPoint x="-280" y="5962" />
            </Array>
          </mxGeometry>
        </mxCell>
        <mxCell id="Eih9cNRxZLLOgjD7t8Rx-55" value="执行结果" style="text;html=1;align=center;verticalAlign=middle;resizable=0;points=[];autosize=1;strokeColor=none;fillColor=none;fontSize=24;" parent="1" vertex="1">
          <mxGeometry x="-270" y="5970" width="120" height="40" as="geometry" />
        </mxCell>
        <mxCell id="Eih9cNRxZLLOgjD7t8Rx-56" value="HTTP" style="text;html=1;align=center;verticalAlign=middle;resizable=0;points=[];autosize=1;strokeColor=none;fillColor=none;fontSize=24;" parent="1" vertex="1">
          <mxGeometry x="882.38" y="6740" width="90" height="40" as="geometry" />
        </mxCell>
        <mxCell id="Eih9cNRxZLLOgjD7t8Rx-57" value="HTTP" style="text;html=1;align=center;verticalAlign=middle;resizable=0;points=[];autosize=1;strokeColor=none;fillColor=none;fontSize=24;" parent="1" vertex="1">
          <mxGeometry x="1000" y="6650" width="90" height="40" as="geometry" />
        </mxCell>
        <mxCell id="Eih9cNRxZLLOgjD7t8Rx-58" value="&lt;font style=&quot;font-size: 32px;&quot;&gt;FSInsight平台架构v1.0&lt;/font&gt;" style="text;html=1;align=center;verticalAlign=middle;resizable=0;points=[];autosize=1;strokeColor=none;fillColor=none;fontSize=25;" parent="1" vertex="1">
          <mxGeometry x="-105.18" y="5290" width="350" height="50" as="geometry" />
        </mxCell>
        <mxCell id="5G6BUOi-uD9NeLcH04Ix-2" value="" style="endArrow=none;dashed=1;html=1;rounded=0;strokeWidth=4;" parent="1" edge="1">
          <mxGeometry width="50" height="50" relative="1" as="geometry">
            <mxPoint x="-1120" y="6630" as="sourcePoint" />
            <mxPoint x="2000" y="6630" as="targetPoint" />
          </mxGeometry>
        </mxCell>
        <mxCell id="5G6BUOi-uD9NeLcH04Ix-3" value="&lt;font style=&quot;font-size: 35px;&quot;&gt;Python&lt;br&gt;&amp;amp;&lt;br&gt;Shell&lt;br&gt;&lt;/font&gt;" style="rounded=0;whiteSpace=wrap;html=1;labelBackgroundColor=none;fontSize=37;fillColor=#d5e8d4;gradientColor=#97d077;strokeColor=#82b366;" parent="1" vertex="1">
          <mxGeometry x="870" y="6950" width="114.76" height="150" as="geometry" />
        </mxCell>
        <mxCell id="B23y7wXSr48O5kqvbDNo-10" value="" style="endArrow=classic;html=1;rounded=0;fontSize=18;strokeColor=#00CC00;entryX=0.999;entryY=0.455;entryDx=0;entryDy=0;entryPerimeter=0;exitX=0.265;exitY=0.338;exitDx=0;exitDy=0;exitPerimeter=0;strokeWidth=2;" parent="1" source="Eih9cNRxZLLOgjD7t8Rx-19" target="B23y7wXSr48O5kqvbDNo-13" edge="1">
          <mxGeometry width="50" height="50" relative="1" as="geometry">
            <mxPoint x="-30" y="5910" as="sourcePoint" />
            <mxPoint x="-420" y="5910" as="targetPoint" />
          </mxGeometry>
        </mxCell>
        <mxCell id="B23y7wXSr48O5kqvbDNo-11" value="" style="swimlane;startSize=0;fontSize=18;" parent="1" vertex="1">
          <mxGeometry x="-1030" y="5350" width="580" height="1250" as="geometry" />
        </mxCell>
        <mxCell id="B23y7wXSr48O5kqvbDNo-12" value="&lt;font style=&quot;font-size: 36px;&quot;&gt;FSInsight 计算节点-N&lt;/font&gt;" style="rounded=1;whiteSpace=wrap;html=1;fontSize=18;fillColor=#1ba1e2;fontColor=#ffffff;strokeColor=#006EAF;" parent="B23y7wXSr48O5kqvbDNo-11" vertex="1">
          <mxGeometry width="580" height="80" as="geometry" />
        </mxCell>
        <mxCell id="B23y7wXSr48O5kqvbDNo-13" value="&lt;font style=&quot;font-size: 36px;&quot;&gt;Airflow&lt;br&gt;Worker&lt;/font&gt;" style="rounded=1;whiteSpace=wrap;html=1;fontSize=18;fillColor=#b0e3e6;strokeColor=#0e8088;" parent="B23y7wXSr48O5kqvbDNo-11" vertex="1">
          <mxGeometry y="500" width="580" height="170" as="geometry" />
        </mxCell>
      </root>
    </mxGraphModel>
  </diagram>
</mxfile>
